<svg id="Layer_1" data-name="Layer 1" xmlns="http://www.w3.org/2000/svg" viewBox="0 0 168 175"><defs><style>.cls-1{fill:#48484b;}</style></defs><title>airplay</title><path class="cls-1" d="M81.83,118l5.3-6a20.5,20.5,0,1,1,27.56-.75l5.3,6a28.49,28.49,0,1,0-38.16.75Z" transform="translate(-17 -11)"/><path class="cls-1" d="M63,139.37l6.25-7.09a47.49,47.49,0,1,1,63.27-.73l5.82,6.6A57,57,0,1,0,63,139.37Z" transform="translate(-17 -11)"/><path class="cls-1" d="M46.12,158.57l5.81-6.6a74.5,74.5,0,1,1,98-.73l6.25,7.09a84,84,0,1,0-110,.24Z" transform="translate(-17 -11)"/><polygon class="cls-1" points="83.5 175 23 175 53.25 140 83.5 105 113.75 140 144 175 83.5 175"/></svg>