<svg id="Layer_1" data-name="Layer 1" xmlns="http://www.w3.org/2000/svg" viewBox="0 0 171 171"><defs><style>.cls-1{fill:#48484b;}</style></defs><title>settings</title><g id="g3027"><path id="path3029" class="cls-1" d="M126.61,99.31A28.58,28.58,0,0,0,98,70.74,28.58,28.58,0,0,0,69.47,99.31,28.58,28.58,0,0,0,98,127.88a28.58,28.58,0,0,0,28.57-28.57ZM184,87.37v24.71a4.32,4.32,0,0,1-.89,2.56,3.38,3.38,0,0,1-2.23,1.45l-20.59,3.12A72.42,72.42,0,0,1,156,129.34q3.88,5.57,11.91,15.36a4.31,4.31,0,0,1,1.11,2.78,3.69,3.69,0,0,1-1,2.56,113.73,113.73,0,0,1-11,12q-8,7.91-10.47,7.9a5.41,5.41,0,0,1-2.89-1l-15.37-12a64.51,64.51,0,0,1-10.13,4.23q-1.77,15.13-3.22,20.7a3.75,3.75,0,0,1-4,3.12H86.14a4.17,4.17,0,0,1-2.72-.95,3.33,3.33,0,0,1-1.29-2.39L79,161.18a68.65,68.65,0,0,1-10-4.12L53.3,169a4,4,0,0,1-2.78,1,3.88,3.88,0,0,1-2.79-1.22q-14-12.69-18.36-18.71a4.33,4.33,0,0,1-.78-2.56,4.26,4.26,0,0,1,.89-2.56q1.66-2.34,5.67-7.4t6-7.85a54.7,54.7,0,0,1-4.57-11l-20.37-3a3.49,3.49,0,0,1-2.34-1.39,4.23,4.23,0,0,1-.89-2.62V86.92a4.32,4.32,0,0,1,.89-2.56A3.34,3.34,0,0,1,16,82.91l20.7-3.12a55.69,55.69,0,0,1,4.34-10.24Q36.61,63.2,29.14,54.19A4.19,4.19,0,0,1,28,51.52,4.66,4.66,0,0,1,29,49,111.3,111.3,0,0,1,40,37q8.07-8,10.52-8a4.74,4.74,0,0,1,2.89,1.11L68.78,42.05a64.51,64.51,0,0,1,10.13-4.23q1.77-15.13,3.22-20.7a3.75,3.75,0,0,1,4-3.12h24.72a4.17,4.17,0,0,1,2.72.95,3.33,3.33,0,0,1,1.29,2.39L118,37.82a68.65,68.65,0,0,1,10,4.12L143.81,30a3.61,3.61,0,0,1,2.67-1,4.32,4.32,0,0,1,2.79,1.11q14.35,13.24,18.36,18.93a3.58,3.58,0,0,1,.78,2.45,4.26,4.26,0,0,1-.89,2.56q-1.67,2.34-5.67,7.4t-6,7.85a66.86,66.86,0,0,1,4.57,10.91l20.37,3.12a3.49,3.49,0,0,1,2.34,1.39A4.23,4.23,0,0,1,184,87.37Z" transform="translate(-13 -14)"/></g></svg>